<?xml version="1.0" encoding="utf-8"?>
<!-- Generator: Adobe Illustrator 16.0.0, SVG Export Plug-In . SVG Version: 6.00 Build 0)  -->
<!DOCTYPE svg PUBLIC "-//W3C//DTD SVG 1.1//EN" "http://www.w3.org/Graphics/SVG/1.1/DTD/svg11.dtd">
<svg version="1.1" id="Layer_1" xmlns="http://www.w3.org/2000/svg" xmlns:xlink="http://www.w3.org/1999/xlink" x="0px" y="0px"
	 width="510px" height="469px" viewBox="0 0 510 469" enable-background="new 0 0 510 469" xml:space="preserve">
<path fill="#D2E9F7" d="M487.505,98.462H68.693c-7.761,0-14.054,13.048-14.054,29.143l0,0c0,16.096,6.293,29.143,14.054,29.143
	h68.441c6.416,0,11.616,10.784,11.616,24.086l0,0c0,13.303-5.2,24.085-11.616,24.085H18.391c-9.873,0-17.876,16.596-17.876,37.066
	l0,0c0,20.47,8.003,37.065,17.876,37.065h56.82c7.819,0,14.159,13.146,14.159,29.36l0,0c0,16.215-6.34,29.361-14.159,29.361h-3.943
	c-13.518,0-24.477,22.723-24.477,50.751l0,0c0,28.033,10.959,50.756,24.477,50.756h299.441c8.919,0,16.149-14.992,16.149-33.485l0,0
	c0-18.493-7.23-33.488-16.149-33.488h-8.635c-6.836,0-12.378-11.488-12.378-25.66l0,0c0-14.172,5.542-25.662,12.378-25.662h67.428
	c9.478,0,17.161-15.932,17.161-35.584l0,0c0-19.654-7.684-35.586-17.161-35.586h-50.479c-8.432,0-15.269-14.177-15.269-31.66l0,0
	c0-17.485,6.837-31.659,15.269-31.659h108.481c11.724,0,21.227-19.707,21.227-44.016l0,0
	C508.731,118.168,499.229,98.462,487.505,98.462"/>
<circle id="XMLID_21_" fill="#5FB0E5" cx="342.013" cy="164.573" r="2.665"/>
<circle id="XMLID_13_" fill="#5FB0E5" cx="102.351" cy="258.345" r="2.542"/>
<path id="XMLID_17_" fill="#5FB0E5" d="M117.849,114.269c-4.657,1.235-5.659,2.237-6.896,6.895
	c-1.235-4.658-2.237-5.659-6.894-6.895c4.657-1.235,5.659-2.238,6.894-6.896C112.189,112.031,113.192,113.034,117.849,114.269z"/>
<path id="XMLID_23_" fill="#5FB0E5" d="M358.309,213.002c-4.309,1.144-5.236,2.07-6.377,6.378c-1.143-4.308-2.07-5.235-6.381-6.378
	c4.311-1.145,5.238-2.07,6.381-6.38C353.072,210.932,354,211.857,358.309,213.002z"/>
<path id="XMLID_1_" fill="#5FB0E5" d="M394.885,158.919c-6.213,1.647-7.549,2.983-9.195,9.193c-1.648-6.21-2.984-7.546-9.193-9.193
	c6.209-1.648,7.545-2.984,9.193-9.193C387.336,155.935,388.672,157.271,394.885,158.919z"/>
<path id="XMLID_18_" fill="#5FB0E5" d="M95.016,177.668c-3.774,1-4.584,1.812-5.587,5.586c-1-3.774-1.812-4.586-5.586-5.586
	c3.774-1.002,4.586-1.814,5.586-5.585C90.431,175.854,91.241,176.666,95.016,177.668z"/>
<path id="XMLID_29_" fill="#5FB0E5" d="M323.877,114.423c-7.105,1.885-8.633,3.413-10.52,10.519
	c-1.885-7.105-3.41-8.634-10.518-10.519c7.107-1.885,8.633-3.414,10.518-10.52C315.244,111.01,316.771,112.539,323.877,114.423z"/>
<path id="XMLID_28_" fill="#5FB0E5" d="M35.874,81.16c-5.647,1.498-6.862,2.713-8.36,8.36c-1.498-5.647-2.712-6.862-8.361-8.36
	c5.649-1.498,6.863-2.713,8.361-8.359C29.012,78.447,30.227,79.663,35.874,81.16z"/>
<g>
	<g id="XMLID_36_">
		<g id="XMLID_784_">
			<polygon id="XMLID_796_" fill="#D2E9F7" points="482.971,81.16 466.367,81.16 449.766,81.16 433.162,81.16 424.861,95.54 
				458.064,133.305 491.271,95.54 			"/>
			<polygon id="XMLID_58_" fill="#9ECFEF" points="441.465,95.54 433.162,81.16 425.57,95.642 			"/>
			<polygon id="XMLID_57_" fill="#9ECFEF" points="457.809,95.094 449.766,81.16 441.732,95.071 			"/>
			<polygon id="XMLID_56_" fill="#9ECFEF" points="474.797,95.54 466.176,81.649 458.844,95.642 			"/>
			<polygon id="XMLID_55_" fill="#9ECFEF" points="458.064,95.54 458.064,130.789 474.289,95.54 			"/>
			<polygon id="XMLID_54_" fill="#5FB0E5" points="425.57,95.54 425.57,95.889 457.309,131.586 440.727,95.54 			"/>
			<polygon id="XMLID_53_" fill="#5FB0E5" points="489.951,95.54 489.951,95.889 458.217,131.586 474.797,95.54 			"/>
			<polyline id="XMLID_52_" fill="none" stroke="#0686D8" stroke-width="1.5" stroke-miterlimit="10" points="469.418,81.16 
				449.766,81.16 433.162,81.16 424.861,95.54 458.064,133.305 491.271,95.54 482.971,81.16 479.695,81.16 			"/>
			
				<line id="XMLID_51_" fill="none" stroke="#0686D8" stroke-width="1.5" stroke-miterlimit="10" x1="476.992" y1="81.16" x2="471.584" y2="81.16"/>
			
				<line id="XMLID_794_" fill="none" stroke="#0686D8" stroke-width="1.5" stroke-miterlimit="10" x1="424.861" y1="95.54" x2="491.271" y2="95.54"/>
			
				<line id="XMLID_50_" fill="none" stroke="#0686D8" stroke-width="1.5" stroke-miterlimit="10" x1="458.064" y1="133.305" x2="441.465" y2="95.54"/>
			
				<line id="XMLID_49_" fill="none" stroke="#0686D8" stroke-width="1.5" stroke-miterlimit="10" x1="458.068" y1="132.444" x2="474.668" y2="94.676"/>
			
				<line id="XMLID_791_" fill="none" stroke="#0686D8" stroke-width="1.5" stroke-miterlimit="10" x1="458.064" y1="95.54" x2="458.064" y2="132.444"/>
			
				<line id="XMLID_477_" fill="none" stroke="#0686D8" stroke-width="1.5" stroke-miterlimit="10" x1="433.162" y1="81.16" x2="441.465" y2="95.54"/>
			
				<line id="XMLID_48_" fill="none" stroke="#0686D8" stroke-width="1.5" stroke-miterlimit="10" x1="449.766" y1="81.16" x2="458.068" y2="95.54"/>
			
				<line id="XMLID_788_" fill="none" stroke="#0686D8" stroke-width="1.5" stroke-miterlimit="10" x1="466.367" y1="81.16" x2="474.67" y2="95.54"/>
			
				<line id="XMLID_787_" fill="none" stroke="#0686D8" stroke-width="1.5" stroke-miterlimit="10" x1="482.971" y1="81.16" x2="474.668" y2="95.54"/>
			
				<line id="XMLID_786_" fill="none" stroke="#0686D8" stroke-width="1.5" stroke-miterlimit="10" x1="466.367" y1="81.16" x2="458.064" y2="95.54"/>
			
				<line id="XMLID_785_" fill="none" stroke="#0686D8" stroke-width="1.5" stroke-miterlimit="10" x1="449.766" y1="81.16" x2="441.465" y2="95.54"/>
		</g>
		<path id="XMLID_979_" fill="#FFFFFF" d="M470.703,137.3l12.168-12.988c2.922-3.816,9.129,0.133,5.84,3.729l-9.699,13.458
			l4.707-0.02l11.215-11.98c0,0,1.068-7.502,1.352-8.553l0.266-9.582c-0.74-1.646-0.014-3.58,1.629-4.327
			c1.645-0.748,3.582-0.018,4.326,1.627l0.078,10.805c0.385,0.855,0.289,13.756,0.289,13.756L489.4,161.085h-20.479l-0.035-19.951
			C469.049,139.915,469.863,138.196,470.703,137.3z"/>
		<path id="XMLID_978_" fill="none" stroke="#0686D8" stroke-width="1.5" stroke-miterlimit="10" d="M470.703,137.3l12.168-12.988
			c2.922-3.816,9.129,0.133,5.84,3.729l-9.699,13.458l4.707-0.02l11.693-12.493c0,0,0.697-7.554,0.975-8.607l-0.186-9.453
			c0.23-1.924-0.014-3.579,1.629-4.326c1.645-0.747,3.578-0.018,4.33,1.628l0.424,11.242c0.385,0.855,0.289,13.756,0.289,13.756
			L489.4,161.085h-20.479l-0.035-19.951C469.049,139.915,469.863,138.196,470.703,137.3z"/>
		<path id="XMLID_977_" fill="#C5E2F5" d="M493.963,438.163V164.678c0-1.312-1.062-2.378-2.377-2.378h-27.391
			c-1.312,0-2.375,1.065-2.375,2.378v273.485H493.963z"/>
		<path id="XMLID_40_" fill="#FFFFFF" d="M444.682,137.3l-12.17-12.988c-2.92-3.816-9.127,0.133-5.836,3.729l9.697,13.458
			l-4.711-0.02l-11.211-11.98c0,0-1.072-7.502-1.352-8.553l-0.268-9.582c0.742-1.646,0.016-3.58-1.627-4.327
			c-1.646-0.748-3.582-0.018-4.328,1.627l-0.074,10.805c-0.387,0.855-0.293,13.756-0.293,13.756l13.475,27.859h20.479l0.031-19.951
			C446.336,139.915,445.521,138.196,444.682,137.3z"/>
		<path id="XMLID_39_" fill="none" stroke="#0686D8" stroke-width="1.5" stroke-miterlimit="10" d="M444.682,137.3l-12.17-12.988
			c-2.92-3.816-9.127,0.133-5.836,3.729l9.697,13.458l-4.711-0.02l-11.689-12.493c0,0-0.699-7.554-0.977-8.607l0.186-9.453
			c-0.23-1.924,0.016-3.579-1.627-4.326c-1.646-0.747-3.58-0.018-4.33,1.628l-0.422,11.242c-0.387,0.855-0.293,13.756-0.293,13.756
			l13.475,27.859h20.479l0.031-19.951C446.336,139.915,445.521,138.196,444.682,137.3z"/>
		<path id="XMLID_38_" fill="#C5E2F5" d="M421.42,438.163V164.678c0-1.312,1.064-2.378,2.377-2.378h27.393
			c1.311,0,2.373,1.065,2.373,2.378v273.485H421.42z"/>
		<path id="XMLID_37_" fill="none" stroke="#0686D8" stroke-width="1.5" stroke-miterlimit="10" d="M493.963,300.048v-135.37
			c0-1.312-1.062-2.378-2.377-2.378h-27.391c-1.312,0-2.375,1.065-2.375,2.378v212.396"/>
		<path id="XMLID_467_" fill="none" stroke="#0686D8" stroke-width="1.5" stroke-miterlimit="10" d="M421.42,233.646v-68.968
			c0-1.312,1.064-2.378,2.377-2.378h27.393c1.311,0,2.373,1.065,2.373,2.378v212.396"/>
	</g>
	<g id="XMLID_358_">
		<g id="XMLID_315_">
			<path id="XMLID_348_" fill="#D2E9F7" d="M85.191,322.147v112.606c0,2.846-2.308,5.153-5.155,5.153H25.664
				c-2.847,0-5.154-2.308-5.154-5.153V322.147c0-2.849,2.309-5.156,5.154-5.156h54.373
				C82.883,316.991,85.191,319.299,85.191,322.147z"/>
			<path id="XMLID_318_" fill="none" stroke="#0686D8" stroke-width="1.5" stroke-miterlimit="10" d="M27.514,316.991
				c-3.869,0-7.005,3.138-7.005,7.006v66.258v32.851v9.799c0,3.866,3.136,7.003,7.005,7.003"/>
		</g>
		<g id="XMLID_325_">
			<path id="XMLID_344_" fill="#D2E9F7" d="M95.59,322.147v112.606c0,2.846-2.309,5.153-5.155,5.153H36.062
				c-2.845,0-5.153-2.308-5.153-5.153V322.147c0-2.849,2.309-5.156,5.156-5.156h54.373C93.282,316.991,95.59,319.299,95.59,322.147z
				"/>
			<path id="XMLID_319_" fill="none" stroke="#0686D8" stroke-width="1.5" stroke-miterlimit="10" d="M56.472,316.991H37.913
				c-3.868,0-7.005,3.138-7.005,7.006v66.258v32.851v9.799c0,3.866,3.137,7.003,7.005,7.003h18.559"/>
			<path id="XMLID_342_" fill="#FFFFFF" d="M84.726,378.658c-0.24,12.025-10.181,21.577-22.206,21.339
				c-12.023-0.242-21.578-10.182-21.338-22.208c0.24-12.02,10.182-21.574,22.206-21.336
				C75.412,356.692,84.966,366.635,84.726,378.658z"/>
			<circle id="XMLID_341_" fill="#FFFFFF" cx="62.339" cy="344.252" r="5.868"/>
			<path id="XMLID_340_" fill="#FFFFFF" d="M68.206,413.631c-0.064,3.239-2.743,5.812-5.982,5.748
				c-3.241-0.062-5.816-2.744-5.751-5.98c0.064-3.243,2.745-5.817,5.984-5.752C65.696,407.713,68.271,410.389,68.206,413.631z"/>
			<path id="XMLID_320_" fill="none" stroke="#0686D8" stroke-width="1.5" stroke-miterlimit="10" d="M47.263,393.322
				c-3.869-4.014-6.202-9.515-6.081-15.533c0.142-7.172,3.741-13.473,9.177-17.331"/>
			<g id="XMLID_328_">
				<path id="XMLID_330_" fill="none" stroke="#0686D8" stroke-width="1.5" stroke-miterlimit="10" d="M54.708,369.507v10.776
					c0,2.279,1.847,4.126,4.123,4.126l0,0c2.278,0,4.124-1.847,4.124-4.126v-4.438c0-2.276,1.846-4.12,4.123-4.12l0,0
					c2.277,0,4.122,1.844,4.122,4.12v11.103"/>
				
					<line id="XMLID_329_" fill="none" stroke="#0686D8" stroke-width="1.5" stroke-miterlimit="10" x1="47.89" y1="378.227" x2="78.019" y2="378.227"/>
			</g>
			<path id="XMLID_322_" fill="none" stroke="#0686D8" stroke-width="1.5" stroke-miterlimit="10" d="M57.12,326.359
				c0,0-3.466,0-6.983,0c-0.543,0-0.956,0.429-1.002,0.97c-0.467,5.697-5.024,10.239-10.73,10.683
				c-0.509,0.037-0.915,0.438-0.915,0.946v9.388"/>
			<path id="XMLID_326_" fill="none" stroke="#0686D8" stroke-width="1.5" stroke-miterlimit="10" d="M56.875,431.426
				c-3.517,0-3.465,0-6.982,0c-0.543,0-0.956-0.426-1-0.967c-0.469-5.699-5.026-10.239-10.731-10.683
				c-0.511-0.037-0.917-0.438-0.917-0.946v-9.388"/>
		</g>
		<path id="XMLID_306_" fill="#FFFFFF" d="M154.958,317.063v119.008c0,2.797-2.267,5.066-5.065,5.066H66.277
			c-2.796,0-5.066-2.27-5.066-5.066V317.063c0-2.799,2.27-5.066,5.066-5.066h83.616C152.69,311.997,154.958,314.265,154.958,317.063
			z"/>
		<path id="XMLID_293_" fill="none" stroke="#0686D8" stroke-width="1.5" stroke-miterlimit="10" d="M149.893,441.138H66.277
			c-2.796,0-5.066-2.27-5.066-5.066V317.063c0-2.799,2.27-5.066,5.066-5.066h67.68"/>
		<path id="XMLID_309_" fill="#D2E9F7" d="M119.886,352.229v-40.232H96.285v40.23c0,3.556,2.88,6.436,6.436,6.436h10.729
			C117.005,358.663,119.886,355.783,119.886,352.229z"/>
		<path id="XMLID_304_" fill="none" stroke="#0686D8" stroke-width="1.5" stroke-miterlimit="10" d="M119.886,352.229v-40.232
			H96.285v40.23c0,3.556,2.88,6.436,6.436,6.436h10.729C117.005,358.663,119.886,355.783,119.886,352.229z"/>
		<circle id="XMLID_313_" fill="#5FB0E5" cx="108.084" cy="344.893" r="5.735"/>
		
			<circle id="XMLID_305_" fill="none" stroke="#0686D8" stroke-width="1.5" stroke-miterlimit="10" cx="108.084" cy="344.893" r="5.735"/>
		
			<line id="XMLID_323_" fill="none" stroke="#0686D8" stroke-width="1.5" stroke-miterlimit="10" x1="71.199" y1="319.675" x2="71.199" y2="326.359"/>
		
			<line id="XMLID_321_" fill="none" stroke="#0686D8" stroke-width="1.5" stroke-miterlimit="10" x1="71.199" y1="335.321" x2="71.199" y2="342.005"/>
		
			<line id="XMLID_324_" fill="none" stroke="#0686D8" stroke-width="1.5" stroke-miterlimit="10" x1="71.199" y1="350.967" x2="71.199" y2="357.65"/>
		
			<line id="XMLID_327_" fill="none" stroke="#0686D8" stroke-width="1.5" stroke-miterlimit="10" x1="71.199" y1="366.612" x2="71.199" y2="373.298"/>
		
			<line id="XMLID_331_" fill="none" stroke="#0686D8" stroke-width="1.5" stroke-miterlimit="10" x1="71.199" y1="382.257" x2="71.199" y2="388.943"/>
		
			<line id="XMLID_343_" fill="none" stroke="#0686D8" stroke-width="1.5" stroke-miterlimit="10" x1="71.199" y1="397.905" x2="71.199" y2="404.589"/>
		
			<line id="XMLID_345_" fill="none" stroke="#0686D8" stroke-width="1.5" stroke-miterlimit="10" x1="71.199" y1="413.551" x2="71.199" y2="420.233"/>
		
			<line id="XMLID_346_" fill="none" stroke="#0686D8" stroke-width="1.5" stroke-miterlimit="10" x1="71.199" y1="429.195" x2="71.199" y2="435.882"/>
		
			<line id="XMLID_357_" fill="none" stroke="#0686D8" stroke-width="1.5" stroke-miterlimit="10" x1="143.992" y1="319.675" x2="143.992" y2="326.359"/>
		
			<line id="XMLID_356_" fill="none" stroke="#0686D8" stroke-width="1.5" stroke-miterlimit="10" x1="143.992" y1="335.321" x2="143.992" y2="342.005"/>
		
			<line id="XMLID_355_" fill="none" stroke="#0686D8" stroke-width="1.5" stroke-miterlimit="10" x1="143.992" y1="350.967" x2="143.992" y2="357.65"/>
		
			<line id="XMLID_352_" fill="none" stroke="#0686D8" stroke-width="1.5" stroke-miterlimit="10" x1="143.992" y1="366.612" x2="143.992" y2="373.298"/>
		
			<line id="XMLID_351_" fill="none" stroke="#0686D8" stroke-width="1.5" stroke-miterlimit="10" x1="143.992" y1="382.257" x2="143.992" y2="388.943"/>
		
			<line id="XMLID_350_" fill="none" stroke="#0686D8" stroke-width="1.5" stroke-miterlimit="10" x1="143.992" y1="397.905" x2="143.992" y2="404.589"/>
		
			<line id="XMLID_349_" fill="none" stroke="#0686D8" stroke-width="1.5" stroke-miterlimit="10" x1="143.992" y1="413.551" x2="143.992" y2="420.233"/>
		
			<line id="XMLID_347_" fill="none" stroke="#0686D8" stroke-width="1.5" stroke-miterlimit="10" x1="143.992" y1="429.195" x2="143.992" y2="435.882"/>
	</g>
	<path opacity="0.3" fill="#03436C" d="M154.958,436.071V317.063c0-2.799-2.267-5.066-5.065-5.066h-15.936v-1.994h-2.814v131.135
		h3.984l0,0h14.766C152.69,441.138,154.958,438.868,154.958,436.071z"/>
	<g>
		<path id="XMLID_110_" fill="#9ECFEF" d="M308.334,441.138h-62.072v-285.86h56.818c2.902,0,5.254,2.352,5.254,5.255V441.138z"/>
		<path id="XMLID_109_" fill="none" stroke="#0686D8" stroke-width="1.5" stroke-miterlimit="10" d="M259.865,155.278h40.824
			c4.223,0,7.645,3.422,7.645,7.644v68.384"/>
		<path id="XMLID_108_" fill="#5FB0E5" d="M138.447,441.138h47.896V114.219H144.4c-3.288,0-5.953,2.665-5.953,5.952V441.138z"/>
		<path id="XMLID_104_" fill="none" stroke="#0686D8" stroke-width="1.5" stroke-miterlimit="10" d="M162.396,114.219h-15.998
			c-4.392,0-7.951,3.56-7.951,7.95v318.969"/>
		<rect id="XMLID_103_" x="188.125" y="73.857" fill="#FFFFFF" width="44.643" height="27.333"/>
		
			<rect id="XMLID_102_" x="188.125" y="73.857" fill="none" stroke="#0686D8" stroke-width="1.5" stroke-miterlimit="10" width="44.643" height="27.333"/>
		<path id="XMLID_101_" fill="#FFFFFF" d="M246.262,441.138h-70.869V93.036c0-2.04,1.653-3.695,3.695-3.695h63.478
			c2.042,0,3.696,1.655,3.696,3.695V441.138z"/>
		<path id="XMLID_100_" fill="none" stroke="#0686D8" stroke-width="1.5" stroke-miterlimit="10" d="M175.393,441.138V94.387
			c0-2.787,2.257-5.046,5.045-5.046h60.778c2.788,0,5.046,2.259,5.046,5.046v136.918"/>
		
			<line id="XMLID_99_" fill="none" stroke="#0686D8" stroke-width="1.5" stroke-miterlimit="10" x1="210.829" y1="49.723" x2="210.829" y2="72.074"/>
		
			<line id="XMLID_98_" fill="none" stroke="#0686D8" stroke-width="1.5" stroke-miterlimit="10" x1="191.938" y1="107.619" x2="191.938" y2="410.705"/>
		
			<line id="XMLID_97_" fill="none" stroke="#0686D8" stroke-width="1.5" stroke-miterlimit="10" x1="210.829" y1="107.619" x2="210.829" y2="410.705"/>
		
			<line id="XMLID_96_" fill="none" stroke="#0686D8" stroke-width="1.5" stroke-miterlimit="10" x1="229.718" y1="107.619" x2="229.718" y2="410.705"/>
		
			<line id="XMLID_95_" fill="none" stroke="#0686D8" stroke-width="1.5" stroke-miterlimit="10" x1="150.42" y1="136.454" x2="165.646" y2="136.454"/>
		
			<line id="XMLID_94_" fill="none" stroke="#0686D8" stroke-width="1.5" stroke-miterlimit="10" x1="150.42" y1="149.476" x2="165.646" y2="149.476"/>
		
			<line id="XMLID_93_" fill="none" stroke="#0686D8" stroke-width="1.5" stroke-miterlimit="10" x1="150.42" y1="162.496" x2="165.646" y2="162.496"/>
		
			<line id="XMLID_92_" fill="none" stroke="#0686D8" stroke-width="1.5" stroke-miterlimit="10" x1="150.42" y1="175.516" x2="165.646" y2="175.516"/>
		
			<line id="XMLID_90_" fill="none" stroke="#0686D8" stroke-width="1.5" stroke-miterlimit="10" x1="150.42" y1="188.537" x2="165.646" y2="188.537"/>
		
			<line id="XMLID_89_" fill="none" stroke="#0686D8" stroke-width="1.5" stroke-miterlimit="10" x1="150.42" y1="201.557" x2="165.646" y2="201.557"/>
		
			<line id="XMLID_87_" fill="none" stroke="#0686D8" stroke-width="1.5" stroke-miterlimit="10" x1="150.42" y1="214.579" x2="165.646" y2="214.579"/>
		
			<line id="XMLID_84_" fill="none" stroke="#0686D8" stroke-width="1.5" stroke-miterlimit="10" x1="150.42" y1="227.6" x2="165.646" y2="227.6"/>
		
			<line id="XMLID_41_" fill="none" stroke="#0686D8" stroke-width="1.5" stroke-miterlimit="10" x1="150.42" y1="241.355" x2="165.646" y2="241.355"/>
		
			<line id="XMLID_106_" fill="none" stroke="#0686D8" stroke-width="1.5" stroke-miterlimit="10" x1="150.42" y1="255.113" x2="165.646" y2="255.113"/>
		
			<line id="XMLID_107_" fill="none" stroke="#0686D8" stroke-width="1.5" stroke-miterlimit="10" x1="150.42" y1="268.871" x2="165.646" y2="268.871"/>
		
			<line id="XMLID_111_" fill="none" stroke="#0686D8" stroke-width="1.5" stroke-miterlimit="10" x1="150.42" y1="282.627" x2="165.646" y2="282.627"/>
		
			<line id="XMLID_112_" fill="none" stroke="#0686D8" stroke-width="1.5" stroke-miterlimit="10" x1="150.42" y1="296.385" x2="165.646" y2="296.385"/>
		
			<line id="XMLID_113_" fill="none" stroke="#0686D8" stroke-width="1.5" stroke-miterlimit="10" x1="150.42" y1="310.143" x2="165.646" y2="310.143"/>
		
			<line id="XMLID_114_" fill="none" stroke="#0686D8" stroke-width="1.5" stroke-miterlimit="10" x1="150.42" y1="323.897" x2="165.646" y2="323.897"/>
		
			<line id="XMLID_115_" fill="none" stroke="#0686D8" stroke-width="1.5" stroke-miterlimit="10" x1="150.42" y1="337.652" x2="165.646" y2="337.652"/>
		
			<line id="XMLID_116_" fill="none" stroke="#0686D8" stroke-width="1.5" stroke-miterlimit="10" x1="150.42" y1="351.41" x2="165.646" y2="351.41"/>
		
			<line id="XMLID_117_" fill="none" stroke="#0686D8" stroke-width="1.5" stroke-miterlimit="10" x1="150.42" y1="365.171" x2="165.646" y2="365.171"/>
		
			<line id="XMLID_118_" fill="none" stroke="#0686D8" stroke-width="1.5" stroke-miterlimit="10" x1="150.42" y1="378.926" x2="165.646" y2="378.926"/>
		
			<line id="XMLID_119_" fill="none" stroke="#0686D8" stroke-width="1.5" stroke-miterlimit="10" x1="150.42" y1="392.684" x2="165.646" y2="392.684"/>
		
			<line id="XMLID_120_" fill="none" stroke="#0686D8" stroke-width="1.5" stroke-miterlimit="10" x1="150.42" y1="406.441" x2="165.646" y2="406.441"/>
		
			<line id="XMLID_121_" fill="none" stroke="#0686D8" stroke-width="1.5" stroke-miterlimit="10" x1="150.42" y1="420.196" x2="165.646" y2="420.196"/>
		<g id="XMLID_79_">
			
				<line id="XMLID_82_" fill="none" stroke="#0686D8" stroke-width="1.5" stroke-miterlimit="10" x1="255.089" y1="175.516" x2="264.639" y2="175.516"/>
			
				<line id="XMLID_81_" fill="none" stroke="#0686D8" stroke-width="1.5" stroke-miterlimit="10" x1="272.523" y1="175.516" x2="282.074" y2="175.516"/>
			
				<line id="XMLID_80_" fill="none" stroke="#0686D8" stroke-width="1.5" stroke-miterlimit="10" x1="289.957" y1="175.516" x2="299.508" y2="175.516"/>
		</g>
		<g id="XMLID_74_">
			
				<line id="XMLID_78_" fill="none" stroke="#0686D8" stroke-width="1.5" stroke-miterlimit="10" x1="255.089" y1="190.231" x2="264.639" y2="190.231"/>
			
				<line id="XMLID_77_" fill="none" stroke="#0686D8" stroke-width="1.5" stroke-miterlimit="10" x1="272.523" y1="190.231" x2="282.074" y2="190.231"/>
			
				<line id="XMLID_76_" fill="none" stroke="#0686D8" stroke-width="1.5" stroke-miterlimit="10" x1="289.957" y1="190.231" x2="299.508" y2="190.231"/>
		</g>
		<g id="XMLID_67_">
			
				<line id="XMLID_73_" fill="none" stroke="#0686D8" stroke-width="1.5" stroke-miterlimit="10" x1="255.089" y1="204.946" x2="264.639" y2="204.946"/>
			
				<line id="XMLID_72_" fill="none" stroke="#0686D8" stroke-width="1.5" stroke-miterlimit="10" x1="272.523" y1="204.946" x2="282.074" y2="204.946"/>
			
				<line id="XMLID_69_" fill="none" stroke="#0686D8" stroke-width="1.5" stroke-miterlimit="10" x1="289.957" y1="204.946" x2="299.508" y2="204.946"/>
		</g>
		<g id="XMLID_61_">
			
				<line id="XMLID_64_" fill="none" stroke="#0686D8" stroke-width="1.5" stroke-miterlimit="10" x1="255.089" y1="219.661" x2="264.639" y2="219.661"/>
			
				<line id="XMLID_63_" fill="none" stroke="#0686D8" stroke-width="1.5" stroke-miterlimit="10" x1="272.523" y1="219.661" x2="282.074" y2="219.661"/>
			
				<line id="XMLID_62_" fill="none" stroke="#0686D8" stroke-width="1.5" stroke-miterlimit="10" x1="289.957" y1="219.661" x2="299.508" y2="219.661"/>
		</g>
		<g id="XMLID_42_">
			
				<line id="XMLID_60_" fill="none" stroke="#0686D8" stroke-width="1.5" stroke-miterlimit="10" x1="255.089" y1="234.378" x2="264.639" y2="234.378"/>
			
				<line id="XMLID_59_" fill="none" stroke="#0686D8" stroke-width="1.5" stroke-miterlimit="10" x1="272.523" y1="234.378" x2="282.074" y2="234.378"/>
			
				<line id="XMLID_44_" fill="none" stroke="#0686D8" stroke-width="1.5" stroke-miterlimit="10" x1="289.957" y1="234.378" x2="299.508" y2="234.378"/>
		</g>
		<g id="XMLID_124_">
			
				<line id="XMLID_138_" fill="none" stroke="#0686D8" stroke-width="1.5" stroke-miterlimit="10" x1="255.089" y1="248.27" x2="264.639" y2="248.27"/>
			
				<line id="XMLID_137_" fill="none" stroke="#0686D8" stroke-width="1.5" stroke-miterlimit="10" x1="272.523" y1="248.27" x2="282.074" y2="248.27"/>
			
				<line id="XMLID_136_" fill="none" stroke="#0686D8" stroke-width="1.5" stroke-miterlimit="10" x1="289.957" y1="248.27" x2="299.508" y2="248.27"/>
		</g>
		<g id="XMLID_140_">
			
				<line id="XMLID_145_" fill="none" stroke="#0686D8" stroke-width="1.5" stroke-miterlimit="10" x1="255.089" y1="262.161" x2="264.639" y2="262.161"/>
			
				<line id="XMLID_142_" fill="none" stroke="#0686D8" stroke-width="1.5" stroke-miterlimit="10" x1="272.523" y1="262.161" x2="282.074" y2="262.161"/>
			
				<line id="XMLID_141_" fill="none" stroke="#0686D8" stroke-width="1.5" stroke-miterlimit="10" x1="289.957" y1="262.161" x2="299.508" y2="262.161"/>
		</g>
		<g id="XMLID_146_">
			
				<line id="XMLID_151_" fill="none" stroke="#0686D8" stroke-width="1.5" stroke-miterlimit="10" x1="255.089" y1="276.056" x2="264.639" y2="276.056"/>
			
				<line id="XMLID_150_" fill="none" stroke="#0686D8" stroke-width="1.5" stroke-miterlimit="10" x1="272.523" y1="276.056" x2="282.074" y2="276.056"/>
			
				<line id="XMLID_147_" fill="none" stroke="#0686D8" stroke-width="1.5" stroke-miterlimit="10" x1="289.957" y1="276.056" x2="299.508" y2="276.056"/>
		</g>
		<g id="XMLID_152_">
			
				<line id="XMLID_159_" fill="none" stroke="#0686D8" stroke-width="1.5" stroke-miterlimit="10" x1="255.089" y1="289.947" x2="264.639" y2="289.947"/>
			
				<line id="XMLID_156_" fill="none" stroke="#0686D8" stroke-width="1.5" stroke-miterlimit="10" x1="272.523" y1="289.947" x2="282.074" y2="289.947"/>
			
				<line id="XMLID_155_" fill="none" stroke="#0686D8" stroke-width="1.5" stroke-miterlimit="10" x1="289.957" y1="289.947" x2="299.508" y2="289.947"/>
		</g>
		<g id="XMLID_178_">
			
				<line id="XMLID_186_" fill="none" stroke="#0686D8" stroke-width="1.5" stroke-miterlimit="10" x1="255.089" y1="303.839" x2="264.639" y2="303.839"/>
			
				<line id="XMLID_182_" fill="none" stroke="#0686D8" stroke-width="1.5" stroke-miterlimit="10" x1="272.523" y1="303.839" x2="282.074" y2="303.839"/>
			
				<line id="XMLID_180_" fill="none" stroke="#0686D8" stroke-width="1.5" stroke-miterlimit="10" x1="289.957" y1="303.839" x2="299.508" y2="303.839"/>
		</g>
		<g id="XMLID_203_">
			
				<line id="XMLID_242_" fill="none" stroke="#0686D8" stroke-width="1.5" stroke-miterlimit="10" x1="255.089" y1="317.732" x2="264.639" y2="317.732"/>
			
				<line id="XMLID_241_" fill="none" stroke="#0686D8" stroke-width="1.5" stroke-miterlimit="10" x1="272.523" y1="317.732" x2="282.074" y2="317.732"/>
			
				<line id="XMLID_216_" fill="none" stroke="#0686D8" stroke-width="1.5" stroke-miterlimit="10" x1="289.957" y1="317.732" x2="299.508" y2="317.732"/>
		</g>
	</g>
	<path opacity="0.3" fill="#03436C" d="M308.334,237.07h-62.391c-2.613,0-5.033,0.771-7.119,2.035
		c-2.473,0.222-4.428,2.175-4.646,4.646c-1.267,2.085-2.039,4.508-2.039,7.122v168.333c0,2.615,0.772,5.034,2.039,7.123
		c0.222,2.472,2.174,4.425,4.646,4.644c2.085,1.266,4.506,2.037,7.119,2.037h10.44v8.127h28.879v-8.127h23.072V237.07z
		 M281.279,439.145h-20.91v-6.134h20.91V439.145z"/>
	<g opacity="0.3">
		<path fill="#03436C" d="M464.539,438.163h29.424v-28.675H482.84l-5.248-25.916c-0.436-2.17-2.361-3.746-4.578-3.746H461.82v33.644
			h7.717L464.539,438.163z"/>
		<path fill="#03436C" d="M453.562,377.073h0.941l-4.689-23.163c-0.438-2.166-2.363-3.746-4.576-3.746h-8.523v-8.536h1.99v-90.754
			c0-2.614-0.77-5.031-2.035-7.121c-0.221-2.473-2.174-4.426-4.648-4.647c-2.086-1.265-4.504-2.035-7.117-2.035h-3.484v201.093
			h32.143v-6.412l-3.699-18.281h3.699V377.073z M436.715,408.74v-24.93h5.043L436.715,408.74z"/>
	</g>
	<g id="XMLID_295_">
		
			<rect id="XMLID_394_" x="373.453" y="422.012" fill="none" stroke="#0686D8" stroke-width="1.5" stroke-miterlimit="10" width="24.895" height="19.126"/>
		
			<rect id="XMLID_392_" x="263.688" y="422.012" fill="none" stroke="#0686D8" stroke-width="1.5" stroke-miterlimit="10" width="24.895" height="19.126"/>
		<path id="XMLID_391_" fill="#7FC0EA" d="M426.254,431.02H244.592c-2.844,0-5.149-2.305-5.149-5.149V244.208
			c0-2.843,2.306-5.146,5.149-5.146h181.662c2.842,0,5.15,2.303,5.15,5.146V425.87C431.404,428.715,429.096,431.02,426.254,431.02z"
			/>
		<path id="XMLID_390_" fill="#BFDFF5" d="M410.723,414.644h-150.6c-2.375,0-4.302-1.928-4.302-4.304V259.739
			c0-2.375,1.927-4.3,4.302-4.3h150.6c2.375,0,4.301,1.925,4.301,4.3V410.34C415.023,412.716,413.098,414.644,410.723,414.644z"/>
		<path id="XMLID_389_" fill="none" stroke="#0686D8" stroke-width="1.5" stroke-miterlimit="10" d="M347.322,414.644h-85.262
			c-3.447,0-6.24-2.793-6.24-6.24V261.676c0-3.445,2.792-6.236,6.24-6.236h146.727c3.443,0,6.236,2.791,6.236,6.236v85.264"/>
		<path id="XMLID_388_" fill="none" stroke="#0686D8" stroke-width="1.5" stroke-miterlimit="10" d="M343.027,431.02h-91.773
			c-6.524,0-11.812-5.288-11.812-11.812V250.871c0-6.522,5.287-11.809,11.812-11.809h168.337c6.521,0,11.812,5.286,11.812,11.809
			v96.068"/>
		<g id="XMLID_381_">
			<path id="XMLID_387_" fill="#5FB0E5" d="M259.174,304.34h-6.367c-1.261,0-2.284-1.021-2.284-2.283v-21.54
				c0-1.262,1.023-2.282,2.284-2.282h6.367c1.26,0,2.281,1.021,2.281,2.282v21.54C261.455,303.318,260.434,304.34,259.174,304.34z"
				/>
			<path id="XMLID_382_" fill="none" stroke="#0686D8" stroke-width="1.5" stroke-miterlimit="10" d="M259.174,304.34h-6.367
				c-1.261,0-2.284-1.021-2.284-2.283v-21.54c0-1.262,1.023-2.282,2.284-2.282h6.367c1.26,0,2.281,1.021,2.281,2.282v21.54
				C261.455,303.318,260.434,304.34,259.174,304.34z"/>
		</g>
		<g id="XMLID_362_">
			<path id="XMLID_380_" fill="#5FB0E5" d="M259.174,383.615h-6.367c-1.261,0-2.284-1.021-2.284-2.281v-21.543
				c0-1.261,1.023-2.282,2.284-2.282h6.367c1.26,0,2.281,1.021,2.281,2.282v21.543C261.455,382.594,260.434,383.615,259.174,383.615
				z"/>
			<path id="XMLID_367_" fill="none" stroke="#0686D8" stroke-width="1.5" stroke-miterlimit="10" d="M259.174,383.615h-6.367
				c-1.261,0-2.284-1.021-2.284-2.281v-21.543c0-1.261,1.023-2.282,2.284-2.282h6.367c1.26,0,2.281,1.021,2.281,2.282v21.543
				C261.455,382.594,260.434,383.615,259.174,383.615z"/>
		</g>
		<circle id="XMLID_354_" fill="#5FB0E5" cx="335.423" cy="335.04" r="22.468"/>
		
			<circle id="XMLID_353_" fill="none" stroke="#0686D8" stroke-width="1.5" stroke-miterlimit="10" cx="335.423" cy="335.04" r="22.468"/>
		<path id="XMLID_339_" fill="none" stroke="#0686D8" stroke-width="1.5" stroke-miterlimit="10" d="M342.012,335.04
			c0,3.64-2.949,6.591-6.588,6.591c-3.641,0-6.592-2.951-6.592-6.591c0-3.637,2.951-6.589,6.592-6.589
			C339.062,328.451,342.012,331.403,342.012,335.04z"/>
		<g id="XMLID_298_">
			<path id="XMLID_338_" fill="#FFFFFF" d="M392.566,441.138h-43.016l5.564-27.51c0.254-1.251,1.352-2.148,2.627-2.148h26.629
				c1.271,0,2.371,0.897,2.625,2.148L392.566,441.138z"/>
			<path id="XMLID_337_" fill="#FFFFFF" d="M448.117,441.138h-43.014l5.566-27.51c0.256-1.251,1.35-2.148,2.627-2.148h26.629
				c1.273,0,2.375,0.897,2.625,2.148L448.117,441.138z"/>
			<path id="XMLID_334_" fill="#FFFFFF" d="M503.674,441.138h-43.018l5.57-27.51c0.252-1.251,1.35-2.148,2.625-2.148h26.629
				c1.273,0,2.373,0.897,2.623,2.148L503.674,441.138z"/>
			<path id="XMLID_317_" fill="#FFFFFF" d="M420.34,411.479h-43.014l5.566-27.517c0.254-1.245,1.352-2.146,2.629-2.146h26.627
				c1.273,0,2.373,0.9,2.623,2.146L420.34,411.479z"/>
			<path id="XMLID_316_" fill="#FFFFFF" d="M475.895,411.479h-43.016l5.57-27.517c0.252-1.245,1.348-2.146,2.625-2.146h26.627
				c1.275,0,2.375,0.9,2.627,2.146L475.895,411.479z"/>
			<path id="XMLID_314_" fill="#FFFFFF" d="M448.117,381.817h-43.014l5.566-27.513c0.256-1.249,1.35-2.146,2.627-2.146h26.629
				c1.273,0,2.375,0.897,2.625,2.146L448.117,381.817z"/>
			<path id="XMLID_312_" fill="none" stroke="#0686D8" stroke-width="1.5" stroke-miterlimit="10" d="M392.566,441.138h-43.016
				l5.564-27.51c0.254-1.251,1.352-2.148,2.627-2.148h26.629c1.271,0,2.371,0.897,2.625,2.148L392.566,441.138z"/>
			<path id="XMLID_311_" fill="none" stroke="#0686D8" stroke-width="1.5" stroke-miterlimit="10" d="M448.117,441.138h-43.014
				l5.566-27.51c0.256-1.251,1.35-2.148,2.627-2.148h26.629c1.273,0,2.375,0.897,2.625,2.148L448.117,441.138z"/>
			<path id="XMLID_310_" fill="none" stroke="#0686D8" stroke-width="1.5" stroke-miterlimit="10" d="M503.674,441.138h-43.018
				l5.57-27.51c0.252-1.251,1.35-2.148,2.625-2.148h26.629c1.273,0,2.373,0.897,2.623,2.148L503.674,441.138z"/>
			<path id="XMLID_308_" fill="none" stroke="#0686D8" stroke-width="1.5" stroke-miterlimit="10" d="M420.34,411.479h-43.014
				l5.566-27.517c0.254-1.245,1.352-2.146,2.629-2.146h26.627c1.273,0,2.373,0.9,2.623,2.146L420.34,411.479z"/>
			<path id="XMLID_307_" fill="none" stroke="#0686D8" stroke-width="1.5" stroke-miterlimit="10" d="M475.895,411.479h-43.016
				l5.57-27.517c0.252-1.245,1.348-2.146,2.625-2.146h26.627c1.275,0,2.375,0.9,2.627,2.146L475.895,411.479z"/>
			<path id="XMLID_303_" fill="none" stroke="#0686D8" stroke-width="1.5" stroke-miterlimit="10" d="M448.117,381.817h-43.014
				l5.566-27.513c0.256-1.249,1.35-2.146,2.627-2.146h26.629c1.273,0,2.375,0.897,2.625,2.146L448.117,381.817z"/>
		</g>
	</g>
	
		<line id="XMLID_5_" fill="none" stroke="#0686D8" stroke-width="1.5" stroke-miterlimit="10" x1="2.668" y1="441.138" x2="507.879" y2="441.138"/>
</g>
</svg>
