<?xml version="1.0" encoding="utf-8"?>
<!-- Generator: Adobe Illustrator 16.0.0, SVG Export Plug-In . SVG Version: 6.00 Build 0)  -->
<!DOCTYPE svg PUBLIC "-//W3C//DTD SVG 1.1//EN" "http://www.w3.org/Graphics/SVG/1.1/DTD/svg11.dtd">
<svg version="1.1" id="Layer_1" xmlns="http://www.w3.org/2000/svg" xmlns:xlink="http://www.w3.org/1999/xlink" x="0px" y="0px"
	 width="960px" height="962px" viewBox="0 0 960 962" enable-background="new 0 0 960 962" xml:space="preserve">
<g id="XMLID_162_">
	<path id="XMLID_167_" fill="#FFFFFF" d="M470.47,956.242H23.973c-6.352,0-11.5-5.148-11.5-11.5V629.851
		c0-6.348,5.148-11.493,11.5-11.493H470.47c6.354,0,11.499,5.146,11.499,11.493v314.893
		C481.969,951.094,476.821,956.242,470.47,956.242z"/>
	<path id="XMLID_193_" fill="none" stroke="#0686D8" stroke-width="1.5" stroke-miterlimit="10" d="M12.473,767.562V640.172
		c0-12.049,9.769-21.815,21.823-21.815H71.76"/>
	<path id="XMLID_187_" fill="none" stroke="#0686D8" stroke-width="1.5" stroke-miterlimit="10" d="M352.38,618.356H460.15
		c12.052,0,21.818,9.769,21.818,21.815v294.245c0,12.051-9.769,21.824-21.818,21.824H34.296c-12.054,0-21.823-9.773-21.823-21.824"
		/>
	
		<line id="XMLID_165_" fill="none" stroke="#0686D8" stroke-width="1.5" stroke-miterlimit="10" x1="48.948" y1="743.915" x2="48.948" y2="830.676"/>
	<rect id="XMLID_164_" x="73.263" y="647.251" fill="#D2E9F7" width="343.356" height="280.088"/>
	<path id="XMLID_163_" fill="none" stroke="#0686D8" stroke-width="1.5" stroke-miterlimit="10" d="M450.864,787.297
		c0,6.738-5.463,12.197-12.197,12.197c-6.737,0-12.2-5.459-12.2-12.197c0-6.739,5.463-12.196,12.2-12.196
		C445.401,775.1,450.864,780.556,450.864,787.297z"/>
	<rect x="81.646" y="572.17" fill="#5FB0E5" width="53.851" height="355.169"/>
	<rect x="81.646" y="572.17" fill="#7FC0EA" width="26.928" height="355.169"/>
	<polyline fill="none" stroke="#0686D8" stroke-width="1.5" stroke-miterlimit="10" points="135.497,927.34 135.497,572.17 
		81.646,572.17 81.646,927.34 	"/>
	<rect x="151.649" y="518.324" fill="#D2E9F7" width="53.848" height="409.016"/>
	<rect x="151.649" y="518.324" fill="#E4F2FA" width="26.923" height="409.016"/>
	<polyline fill="none" stroke="#0686D8" stroke-width="1.5" stroke-miterlimit="10" points="205.497,927.34 205.497,518.324 
		151.649,518.324 151.649,927.34 	"/>
	<rect x="224.38" y="475.795" fill="#9ECFEF" width="53.849" height="451.544"/>
	<rect x="224.38" y="475.795" fill="#C5E2F5" width="26.926" height="451.544"/>
	<polyline fill="none" stroke="#0686D8" stroke-width="1.5" stroke-miterlimit="10" points="278.229,927.34 278.229,475.795 
		224.38,475.795 224.38,927.34 	"/>
</g>
<g id="XMLID_245_">
	<g id="XMLID_246_">
		<path id="XMLID_264_" fill="#FFFFFF" d="M812.229,957.539h-33.021v-661.86c0-9.113,7.396-16.504,16.508-16.504l0,0
			c9.126,0,16.513,7.392,16.513,16.504V957.539L812.229,957.539z"/>
		<path id="XMLID_263_" fill="none" stroke="#0686D8" stroke-width="1.5" stroke-miterlimit="10" d="M779.208,957.539V294.288
			c0-8.352,6.771-15.113,15.119-15.113h2.79c8.345,0,15.111,6.762,15.111,15.113v663.251"/>
		
			<line id="XMLID_262_" fill="none" stroke="#0686D8" stroke-width="1.5" stroke-miterlimit="10" x1="680.065" y1="352.896" x2="911.382" y2="352.896"/>
		<path id="XMLID_261_" fill="#5FB0E5" d="M830.582,350.846c0,19.154-15.515,34.675-34.672,34.675
			c-19.146,0-34.668-15.519-34.668-34.675c0-19.146,15.521-34.673,34.668-34.673C815.067,316.172,830.582,331.699,830.582,350.846z"
			/>
		<path id="XMLID_260_" fill="none" stroke="#0686D8" stroke-width="1.5" stroke-miterlimit="10" d="M830.582,350.846
			c0,19.154-15.515,34.675-34.672,34.675c-19.146,0-34.668-15.519-34.668-34.675c0-19.146,15.521-34.673,34.668-34.673
			C815.067,316.172,830.582,331.699,830.582,350.846z"/>
		
			<line id="XMLID_259_" fill="none" stroke="#0686D8" stroke-width="1.5" stroke-miterlimit="10" x1="935.837" y1="466.396" x2="891.249" y2="341.944"/>
		
			<line id="XMLID_258_" fill="none" stroke="#0686D8" stroke-width="1.5" stroke-miterlimit="10" x1="855.004" y1="466.396" x2="903.37" y2="341.944"/>
		<path id="XMLID_257_" fill="#9ECFEF" d="M951.183,461.475c0,30.602-24.811,55.41-55.414,55.41
			c-30.607,0-55.419-24.809-55.419-55.41H951.183z"/>
		
			<line id="XMLID_256_" fill="none" stroke="#0686D8" stroke-width="1.5" stroke-miterlimit="10" x1="655.947" y1="466.396" x2="700.542" y2="341.944"/>
		
			<line id="XMLID_255_" fill="none" stroke="#0686D8" stroke-width="1.5" stroke-miterlimit="10" x1="736.787" y1="466.396" x2="688.431" y2="341.944"/>
		<path id="XMLID_254_" fill="#9ECFEF" d="M640.61,461.475c0,30.602,24.81,55.41,55.413,55.41c30.603,0,55.412-24.809,55.412-55.41
			H640.61z"/>
		<path id="XMLID_253_" fill="none" stroke="#0686D8" stroke-width="1.5" stroke-miterlimit="10" d="M945.691,485.561
			c-2.132,4.402-4.823,8.479-7.986,12.139"/>
		<path id="XMLID_252_" fill="none" stroke="#0686D8" stroke-width="1.5" stroke-miterlimit="10" d="M927.27,507.068
			c-5.15,3.567-10.948,6.287-17.177,7.948c-4.568,1.222-9.376,1.869-14.323,1.869c-30.607,0-55.419-24.81-55.419-55.41h110.832
			c0,6.921-1.271,13.553-3.593,19.661"/>
		<path id="XMLID_251_" fill="none" stroke="#0686D8" stroke-width="1.5" stroke-miterlimit="10" d="M640.61,461.475
			c0,30.602,24.81,55.41,55.413,55.41c30.603,0,55.412-24.809,55.412-55.41H640.61z"/>
		<path id="XMLID_250_" fill="#5FB0E5" d="M910.472,352.896c0,8.042-6.525,14.563-14.563,14.563
			c-8.053,0-14.568-6.521-14.568-14.563s6.518-14.564,14.568-14.564C903.946,338.332,910.472,344.854,910.472,352.896z"/>
		<path id="XMLID_249_" fill="none" stroke="#0686D8" stroke-width="1.5" stroke-miterlimit="10" d="M910.472,352.896
			c0,8.042-6.525,14.563-14.563,14.563c-8.053,0-14.568-6.521-14.568-14.563s6.518-14.564,14.568-14.564
			C903.946,338.332,910.472,344.854,910.472,352.896z"/>
		<path id="XMLID_248_" fill="#5FB0E5" d="M710.586,352.896c0,8.042-6.515,14.563-14.564,14.563
			c-8.047,0-14.568-6.521-14.568-14.563s6.521-14.564,14.568-14.564C704.072,338.332,710.586,344.854,710.586,352.896z"/>
		<path id="XMLID_247_" fill="none" stroke="#0686D8" stroke-width="1.5" stroke-miterlimit="10" d="M710.586,352.896
			c0,8.042-6.515,14.563-14.564,14.563c-8.047,0-14.568-6.521-14.568-14.563s6.521-14.564,14.568-14.564
			C704.072,338.332,710.586,344.854,710.586,352.896z"/>
	</g>
</g>
<g id="XMLID_9_">
	<g id="XMLID_10_">
		<path id="XMLID_336_" fill="#5FB0E5" d="M793.774,936.746H309.979c-4.022,0-7.315-3.3-7.315-7.315v-343.63
			c0-4.023,3.293-7.315,7.315-7.315h483.796c4.021,0,7.314,3.292,7.314,7.315v343.63
			C801.089,933.446,797.796,936.746,793.774,936.746z"/>
		
			<line id="XMLID_335_" fill="none" stroke="#0686D8" stroke-width="1.5" stroke-miterlimit="10" x1="546.16" y1="578.484" x2="595.216" y2="578.484"/>
		<path id="XMLID_294_" fill="none" stroke="#0686D8" stroke-width="1.5" stroke-miterlimit="10" d="M302.664,799.984V590.865
			c0-6.812,5.573-12.381,12.388-12.381h211.297"/>
		
			<line id="XMLID_297_" fill="none" stroke="#0686D8" stroke-width="1.5" stroke-miterlimit="10" x1="801.089" y1="854.217" x2="801.089" y2="924.356"/>
		<path id="XMLID_292_" fill="none" stroke="#0686D8" stroke-width="1.5" stroke-miterlimit="10" d="M619.875,578.484h168.834
			c6.809,0,12.38,5.567,12.38,12.381v77.483"/>
		<rect id="XMLID_333_" x="326.869" y="606.669" fill="#FFFFFF" width="447.312" height="290.726"/>
		<path id="XMLID_332_" fill="#FFFFFF" d="M792.379,956.641h-486.5c-11.673,0-21.64-8.461-23.529-19.991l-3.464-21.137h225.486
			l8.622,12.391h62.309l9.323-12.391h237.54l-3.013,18.384C816.998,947.007,805.669,956.641,792.379,956.641z"/>
		<path id="XMLID_105_" fill="none" stroke="#0686D8" stroke-width="1.5" stroke-miterlimit="10" d="M792.379,956.641h-486.5
			c-11.673,0-21.64-8.461-23.529-19.991l-3.464-21.137h225.486l8.622,12.391h62.309l9.323-12.391h237.54l-3.013,18.384
			C816.998,947.007,805.669,956.641,792.379,956.641z"/>
		<polyline id="XMLID_20_" fill="none" stroke="#0686D8" stroke-width="1.5" stroke-miterlimit="10" points="359.72,638.586 
			359.441,872.535 714.555,872.535 		"/>
		<polyline id="XMLID_15_" fill="none" stroke="#0686D8" stroke-width="1.5" stroke-miterlimit="10" points="359.72,794.609 
			389.577,794.609 423.966,757.433 461.153,794.609 539.422,728.538 603.261,794.609 726.896,691.158 		"/>
		<polyline id="XMLID_14_" fill="none" stroke="#0686D8" stroke-width="1.5" stroke-miterlimit="10" points="694.445,686.355 
			731.614,686.355 731.614,725.464 		"/>
		
			<line id="XMLID_12_" fill="none" stroke="#0686D8" stroke-width="1.5" stroke-miterlimit="10" x1="397.374" y1="651.504" x2="492.653" y2="651.504"/>
		
			<line id="XMLID_11_" fill="none" stroke="#0686D8" stroke-width="1.5" stroke-miterlimit="10" x1="397.374" y1="691.158" x2="445.014" y2="691.158"/>
	</g>
</g>
<g id="XMLID_650_">
	
		<line id="XMLID_671_" fill="none" stroke="#0686D8" stroke-width="1.5" stroke-miterlimit="10" x1="856.506" y1="887.087" x2="856.53" y2="926.741"/>
	<path id="XMLID_668_" fill="#9ECFEF" d="M856.465,698.506c-52.856,0-95.708,42.853-95.708,95.709
		c0,52.861,42.852,95.713,95.708,95.713c52.858,0,95.714-42.852,95.714-95.713C952.177,741.357,909.323,698.506,856.465,698.506z
		 M856.465,866.931c-40.157,0-72.711-32.551-72.711-72.715c0-40.155,32.554-72.711,72.711-72.711
		c40.16,0,72.717,32.556,72.717,72.711C929.181,834.38,896.625,866.933,856.465,866.931z"/>
	
		<rect id="XMLID_666_" x="835.752" y="916.938" transform="matrix(-7.048090e-04 -1 1 -7.048090e-04 -78.7037 1793.0403)" fill="#9ECFEF" width="41.568" height="37.813"/>
	<polyline id="XMLID_665_" fill="none" stroke="#0686D8" stroke-width="1.5" stroke-miterlimit="10" points="875.457,956.118 
		875.429,915.044 837.616,915.073 837.646,956.145 	"/>
	
		<line id="XMLID_664_" fill="none" stroke="#0686D8" stroke-width="1.5" stroke-miterlimit="10" x1="836.715" y1="942.286" x2="876.366" y2="942.259"/>
	<polygon id="XMLID_675_" fill="#FFFFFF" points="815.755,862.79 788.56,846.3 788.56,721.504 815.755,721.504 	"/>
	<rect id="XMLID_674_" x="815.755" y="679.166" fill="#5FB0E5" width="27.19" height="193.188"/>
	<rect id="XMLID_672_" x="842.945" y="696.121" fill="#FFFFFF" width="27.188" height="176.234"/>
	<rect id="XMLID_667_" x="870.133" y="676.2" fill="#5FB0E5" width="27.195" height="196.155"/>
	<polygon id="XMLID_655_" fill="#FFFFFF" points="924.519,853.778 897.328,867.044 897.328,651.504 924.519,651.504 	"/>
	<polygon id="XMLID_244_" fill="none" stroke="#0686D8" stroke-width="1.5" stroke-miterlimit="10" points="815.755,862.79 
		788.56,846.3 788.56,721.504 815.755,721.504 	"/>
	
		<rect id="XMLID_243_" x="815.755" y="679.166" fill="none" stroke="#0686D8" stroke-width="1.5" stroke-miterlimit="10" width="27.19" height="193.188"/>
	
		<rect id="XMLID_644_" x="842.945" y="696.121" fill="none" stroke="#0686D8" stroke-width="1.5" stroke-miterlimit="10" width="27.188" height="176.234"/>
	
		<rect id="XMLID_646_" x="870.133" y="676.2" fill="none" stroke="#0686D8" stroke-width="1.5" stroke-miterlimit="10" width="27.195" height="196.155"/>
	<polygon id="XMLID_647_" fill="none" stroke="#0686D8" stroke-width="1.5" stroke-miterlimit="10" points="924.519,847.149 
		897.328,867.044 897.328,651.504 924.519,651.504 	"/>
	<path id="XMLID_649_" fill="#9ECFEF" d="M929.181,794.216c0,40.164-32.557,72.717-72.717,72.715
		c-40.157,0-72.711-32.551-72.711-72.715h-22.997c0,52.861,42.852,95.713,95.708,95.713c52.858,0,95.713-42.852,95.713-95.713
		H929.181L929.181,794.216z"/>
	<path id="XMLID_627_" fill="none" stroke="#0686D8" stroke-width="1.5" stroke-miterlimit="10" d="M771.235,837.806
		c15.854,30.945,48.07,52.123,85.229,52.123c52.858,0,95.713-42.852,95.713-95.713c0-18.793-5.419-36.321-14.771-51.106
		 M761.154,803.013c0.742,8.115,2.49,15.939,5.126,23.339 M775.9,742.523c-9.584,14.908-15.146,32.649-15.146,51.69"/>
</g>
<g>
	<path fill="#D2E9F7" d="M580.346,132.103c0,55.416-44.922,100.35-100.344,100.35c-55.423,0-100.348-44.934-100.348-100.35
		c0-55.42,44.925-100.345,100.348-100.345C535.424,31.758,580.346,76.683,580.346,132.103z"/>
	<path fill="#FFFFFF" d="M553.014,132.103c0,40.32-32.688,73.014-73.013,73.014c-40.321,0-73.014-32.692-73.014-73.014
		c0-40.324,32.69-73.012,73.014-73.012C520.326,59.091,553.014,91.779,553.014,132.103z"/>
	<path fill="none" stroke="#0686D8" stroke-width="1.5" stroke-miterlimit="10" d="M580.346,132.103
		c0,55.416-44.922,100.35-100.344,100.35c-55.423,0-100.348-44.934-100.348-100.35c0-55.42,44.925-100.345,100.348-100.345
		C535.424,31.758,580.346,76.683,580.346,132.103z"/>
	<g>
		
			<line fill="none" stroke="#0686D8" stroke-width="1.5" stroke-miterlimit="10" x1="514.455" y1="97.648" x2="445.545" y2="166.562"/>
		<path fill="none" stroke="#0686D8" stroke-width="1.5" stroke-miterlimit="10" d="M469.111,121.212
			c-4.885,4.891-12.806,4.891-17.69,0c-4.888-4.884-4.888-12.806,0-17.689c4.887-4.889,12.808-4.889,17.69,0
			C473.998,108.408,473.998,116.33,469.111,121.212z"/>
		<path fill="none" stroke="#0686D8" stroke-width="1.5" stroke-miterlimit="10" d="M510.164,162.271
			c-4.883,4.883-12.805,4.883-17.691,0c-4.885-4.883-4.887-12.809,0-17.689c4.888-4.891,12.81-4.891,17.691,0
			C515.053,149.462,515.053,157.388,510.164,162.271z"/>
	</g>
</g>
<g enable-background="new    ">
	<path fill="#5FB0E5" d="M255.381,262.015c1.86-1.62,4.26-2.76,6.54-2.76c3.72,0,6.959,1.98,9.12,5.1c2.1-3.119,5.459-5.1,9.12-5.1
		c6.419,0,11.639,6.12,11.639,13.739v12.84h-6.72v-12.84c0-3.72-2.34-7.02-5.76-7.02c-3.36,0-5.58,3.36-5.7,6.6v13.26h-6.72v-12.84
		c0-3.72-2.4-7.02-5.76-7.02c-2.94,0-4.8,2.28-5.52,4.98v14.879h-7.2v-25.859h5.82L255.381,262.015z"/>
	<path fill="#5FB0E5" d="M297.682,252.176v-8.4h7.739v8.4H297.682z M297.682,285.834v-25.859h7.739v25.859H297.682z"/>
	<path fill="#5FB0E5" d="M317.54,262.255c2.04-1.8,4.739-3,7.38-3c6.959,0,12.659,6.12,12.659,13.739v12.84h-7.319v-12.84
		c0-3.72-2.641-7.02-6.24-7.02s-6.239,3.3-6.239,7.02v12.84h-7.56v-25.859h6.119L317.54,262.255z"/>
	<path fill="#5FB0E5" d="M369.02,272.814c0,7.62-6.6,13.739-13.56,13.739c-7.02,0-13.56-6.119-13.56-13.739v-12.84h7.68v12.66
		c0,1.8,0.66,3.479,1.62,4.68c1.2,1.26,2.76,1.979,4.26,1.979s3.06-0.72,4.2-1.979c1.02-1.2,1.68-2.88,1.68-4.68v-12.66h7.68
		V272.814z"/>
	<path fill="#5FB0E5" d="M381.379,262.015c1.86-1.62,4.26-2.76,6.54-2.76c3.72,0,6.96,1.98,9.119,5.1c2.101-3.119,5.46-5.1,9.12-5.1
		c6.42,0,11.64,6.12,11.64,13.739v12.84h-6.72v-12.84c0-3.72-2.34-7.02-5.76-7.02c-3.36,0-5.58,3.36-5.7,6.6v13.26h-6.72v-12.84
		c0-3.72-2.399-7.02-5.76-7.02c-2.939,0-4.8,2.28-5.52,4.98v14.879h-7.2v-25.859h5.82L381.379,262.015z"/>
	<path fill="#5FB0E5" d="M450.318,272.814c0,7.62-6.6,13.739-13.56,13.739c-7.02,0-13.56-6.119-13.56-13.739v-12.84h7.68v12.66
		c0,1.8,0.66,3.479,1.62,4.68c1.2,1.26,2.76,1.979,4.26,1.979s3.06-0.72,4.2-1.979c1.02-1.2,1.68-2.88,1.68-4.68v-12.66h7.68
		V272.814z"/>
	<path fill="#5FB0E5" d="M455.238,285.834v-44.639h7.68v44.639H455.238z"/>
	<path fill="#5FB0E5" d="M514.096,259.975v25.859h-6.359v-2.52c-2.399,2.039-5.52,3.239-8.88,3.239
		c-7.619,0-13.739-6.119-13.739-13.679c0-7.62,6.12-13.68,13.739-13.68c3.36,0,6.48,1.199,8.88,3.239l0.6-2.46H514.096z
		 M506.536,272.875c0-1.86-0.659-3.66-1.979-4.98c-1.26-1.319-2.94-2.04-4.74-2.04s-3.479,0.721-4.8,2.04
		c-1.26,1.32-1.979,3.12-1.979,4.98c0,1.859,0.72,3.6,1.979,4.979c1.32,1.319,3,2.04,4.8,2.04s3.48-0.721,4.74-2.04
		C505.877,276.475,506.536,274.734,506.536,272.875z"/>
	<path fill="#5FB0E5" d="M526.217,262.255c2.04-1.8,4.739-3,7.38-3c6.959,0,12.659,6.12,12.659,13.739v12.84h-7.319v-12.84
		c0-3.72-2.641-7.02-6.24-7.02s-6.239,3.3-6.239,7.02v12.84h-7.561v-25.859h6.12L526.217,262.255z"/>
	<path fill="#5FB0E5" d="M579.435,259.975v25.859h-6.359v-2.52c-2.399,2.039-5.52,3.239-8.88,3.239
		c-7.619,0-13.739-6.119-13.739-13.679c0-7.62,6.12-13.68,13.739-13.68c3.36,0,6.48,1.199,8.88,3.239l0.6-2.46H579.435z
		 M571.875,272.875c0-1.86-0.66-3.66-1.979-4.98c-1.26-1.319-2.94-2.04-4.74-2.04s-3.479,0.721-4.8,2.04
		c-1.26,1.32-1.979,3.12-1.979,4.98c0,1.859,0.72,3.6,1.979,4.979c1.32,1.319,3,2.04,4.8,2.04s3.48-0.721,4.74-2.04
		C571.215,276.475,571.875,274.734,571.875,272.875z"/>
	<path fill="#5FB0E5" d="M584.836,285.834v-44.639h7.68v44.639H584.836z"/>
	<path fill="#5FB0E5" d="M609.015,284.214l-12.6-24.239h8.64l8.52,14.34l7.92-14.34h8.399l-23.219,44.639h-8.399L609.015,284.214z"
		/>
	<path fill="#5FB0E5" d="M651.975,259.975v7.021h-5.999v18.839h-7.62v-18.839h-5.399v-7.021h5.399v-9.6h7.62v9.6H651.975z"/>
	<path fill="#5FB0E5" d="M656.656,252.176v-8.4h7.739v8.4H656.656z M656.656,285.834v-25.859h7.739v25.859H656.656z"/>
	<path fill="#5FB0E5" d="M688.694,268.015c-3.9-4.26-12.3-1.56-12.3,4.92c0,5.76,7.8,9.42,12.3,4.979l3.359,6
		c-2.399,1.62-5.34,2.64-8.52,2.64c-7.92,0-14.339-6.119-14.339-13.739c0-7.56,6.419-13.68,14.339-13.68
		c3.24,0,6.18,1.021,8.64,2.76L688.694,268.015z"/>
	<path fill="#5FB0E5" d="M700.635,277.015c3.78,4.319,9.54,4.499,9.54,1.26c0-1.92-1.86-2.521-3.78-3.12
		c-5.04-1.56-8.52-3.12-8.52-8.1c0-4.74,4.26-7.859,9.18-7.859c4.439,0,6.84,0.96,10.319,3.06l-3.479,5.46
		c-5.04-3.6-8.46-3.3-8.819-0.54c-0.301,1.92,2.52,2.28,5.52,3.3c3.659,1.08,7.079,3.54,7.079,7.979c0,4.14-4.26,8.1-9.539,8.1
		c-4.68,0-9.12-1.5-12.3-4.68L700.635,277.015z"/>
</g>
</svg>
