<?xml version="1.0" encoding="utf-8"?>
<!-- Generator: Adobe Illustrator 16.0.0, SVG Export Plug-In . SVG Version: 6.00 Build 0)  -->
<!DOCTYPE svg PUBLIC "-//W3C//DTD SVG 1.1//EN" "http://www.w3.org/Graphics/SVG/1.1/DTD/svg11.dtd">
<svg version="1.1" id="Layer_1" xmlns="http://www.w3.org/2000/svg" xmlns:xlink="http://www.w3.org/1999/xlink" x="0px" y="0px"
	 width="2000px" height="2000px" viewBox="0 0 2000 2000" enable-background="new 0 0 2000 2000" xml:space="preserve">
<g id="XMLID_409_">
	<g id="XMLID_427_">
		<path id="XMLID_430_" fill="#FFFFFF" d="M1310.077,671.479l-310.694-97.932c-6.775-2.138-10.538-9.368-8.399-16.134
			l97.927-310.703c2.142-6.778,9.376-10.535,16.148-8.396l310.688,97.924c6.784,2.135,10.553,9.365,8.412,16.145l-97.937,310.701
			C1324.087,669.861,1316.861,673.618,1310.077,671.479z"/>
		<polygon id="XMLID_429_" fill="#5FB0E5" points="1295.634,600.864 1045.156,521.909 1119.493,286.054 1369.98,365.004 		"/>
		<path id="XMLID_428_" fill="none" stroke="#0686D8" stroke-width="1.5" stroke-miterlimit="10" d="M1056.768,348.718
			l29.562-93.797c3.566-11.305,15.627-17.588,26.939-14.02l294.277,92.746c11.312,3.567,17.591,15.629,14.025,26.943
			l-63.004,199.904"/>
	</g>
	<g id="XMLID_420_">
		<path id="XMLID_426_" fill="#FFFFFF" d="M963.689,516.336l-333.963,75.138c-10.14,2.28-20.216-4.098-22.498-14.229
			l-50.383-223.968c-2.275-10.144,4.096-20.206,14.237-22.485l333.964-75.142c10.143-2.278,20.216,4.1,22.488,14.233l50.389,223.964
			C980.206,503.991,973.832,514.058,963.689,516.336z"/>
		<path id="XMLID_425_" fill="#9ECFEF" d="M923.413,251.529L773.891,416.381c-3.903,4.312-10.089,5.705-15.459,3.486l-205.72-84.954
			L923.413,251.529z"/>
		<path id="XMLID_424_" fill="none" stroke="#0686D8" stroke-width="1.5" stroke-miterlimit="10" d="M556.65,336.542l201.78,83.325
			c5.371,2.219,11.556,0.826,15.459-3.486l144.766-159.618"/>
		<path id="XMLID_423_" fill="none" stroke="#0686D8" stroke-width="1.5" stroke-miterlimit="10" d="M604.124,563.435
			L556.33,350.997c-1.995-8.882,3.587-17.702,12.47-19.701l34.733-7.815"/>
		<path id="XMLID_422_" fill="none" stroke="#0686D8" stroke-width="1.5" stroke-miterlimit="10" d="M693.902,303.155
			l213.426-48.013c8.883-1.997,17.705,3.581,19.703,12.463l18.252,81.126"/>
		
			<line id="XMLID_421_" fill="none" stroke="#0686D8" stroke-width="1.5" stroke-miterlimit="10" x1="632.766" y1="316.914" x2="672.643" y2="307.938"/>
	</g>
	<path id="XMLID_419_" fill="#FFFFFF" d="M1333.197,598.501h-3.376c-14.862-51.176-62-88.614-117.958-88.614
		c-24.434,0-47.135,7.215-66.271,19.512c-12.42-80.633-81.905-142.424-166.004-142.424c-75.497,0-139.363,49.734-160.637,118.238
		c-9.578-2.576-19.604-4.077-30.006-4.077c-57.615,0-105.237,42.213-113.957,97.366h-18.821c-47.428,0-86.242,38.81-86.242,86.252
		v6.354c0,47.437,38.814,86.246,86.242,86.246h677.028c47.428,0,86.233-38.81,86.233-86.246v-6.354
		C1419.432,637.311,1380.625,598.501,1333.197,598.501z"/>
	<path id="XMLID_418_" fill="none" stroke="#0686D8" stroke-width="1.5" stroke-miterlimit="10" d="M1419.432,691.107v-6.354
		c0-47.442-38.807-86.252-86.233-86.252h-3.376c-14.862-51.176-62-88.614-117.958-88.614c-24.434,0-47.134,7.215-66.271,19.512
		c-12.42-80.633-81.904-142.424-166.004-142.424c-75.497,0-139.363,49.734-160.637,118.238c-9.578-2.576-19.604-4.077-30.006-4.077
		c-57.615,0-105.237,42.213-113.957,97.366h-18.821c-47.428,0-86.242,38.81-86.242,86.252v6.354"/>
	<path id="XMLID_417_" fill="none" stroke="#0686D8" stroke-width="1.5" stroke-miterlimit="10" d="M1089.112,515.769
		c-24.957-38.441-68.204-63.885-117.468-63.885c-26.077,0-50.49,7.125-71.397,19.523"/>
	<path id="XMLID_416_" fill="none" stroke="#0686D8" stroke-width="1.5" stroke-miterlimit="10" d="M791.102,500.628
		c33.062,0,59.864,26.812,59.864,59.866"/>
</g>
<g>
	<path id="XMLID_304_" fill="#5FB0E5" d="M1515.24,1452.521H438.758c-6.646,0-12.094-5.438-12.094-12.089V673.48
		c0-6.646,5.446-12.089,12.094-12.089H1515.24c6.652,0,12.09,5.444,12.09,12.089v766.953
		C1527.33,1447.084,1521.895,1452.521,1515.24,1452.521z"/>
	<path id="XMLID_303_" fill="none" stroke="#0686D8" stroke-width="1.5" stroke-miterlimit="10" d="M1393.137,661.392h106.846
		c15.039,0,27.349,12.307,27.349,27.35v736.44c0,15.038-12.31,27.34-27.349,27.34H454.008c-15.04,0-27.344-12.302-27.344-27.34
		v-736.44c0-15.043,12.304-27.35,27.344-27.35h903.288"/>
	<rect id="XMLID_302_" x="480.117" y="723.642" fill="#FFFFFF" width="987.794" height="642.005"/>
	<path id="XMLID_301_" fill="#D2E9F7" d="M1508.092,1496.458H433.767c-25.793,0-47.79-18.687-51.96-44.139l-7.657-46.673h497.935
		l19.054,27.34h137.585l20.602-27.34h524.544l-6.65,40.592C1562.465,1475.201,1537.438,1496.458,1508.092,1496.458z"/>
	<path id="XMLID_300_" fill="none" stroke="#0686D8" stroke-width="1.5" stroke-miterlimit="10" d="M1079.129,1496.458H433.767
		c-25.793,0-47.79-18.687-51.96-44.139l-7.657-46.673h497.935l19.054,27.34h137.585l20.602-27.34h29.806"/>
</g>
<g opacity="0.6">
	<rect id="XMLID_299_" x="596.438" y="781.188" fill="#0686D8" width="109.52" height="14.331"/>
	<rect id="XMLID_298_" x="651.194" y="830.173" fill="#5FB0E5" width="75.438" height="14.339"/>
	<rect id="XMLID_297_" x="893.496" y="830.173" fill="#0686D8" width="526.17" height="14.339"/>
	<rect id="XMLID_296_" x="778.568" y="830.173" fill="#0686D8" width="84.879" height="14.339"/>
	<rect id="XMLID_295_" x="676.879" y="871.048" fill="#9ECFEF" width="150.336" height="14.341"/>
	<rect id="XMLID_293_" x="737.773" y="928.793" fill="#5FB0E5" width="190.781" height="14.345"/>
	<rect id="XMLID_292_" x="596.438" y="983.125" fill="#0686D8" width="208.478" height="14.337"/>
	<rect id="XMLID_289_" x="827.215" y="983.125" fill="#9ECFEF" width="150.607" height="14.337"/>
	<rect id="XMLID_286_" x="651.194" y="1037.446" fill="#5FB0E5" width="279.554" height="14.347"/>
	<rect id="XMLID_282_" x="1044.912" y="1037.446" fill="#0686D8" width="185.857" height="14.347"/>
	<rect id="XMLID_281_" x="942.564" y="1037.446" fill="#0686D8" width="87.729" height="14.347"/>
	<rect id="XMLID_274_" x="744.127" y="1091.78" fill="#0686D8" width="244.607" height="14.341"/>
	<rect id="XMLID_273_" x="676.879" y="1091.78" fill="#5FB0E5" width="51.215" height="14.341"/>
	<rect id="XMLID_272_" x="596.438" y="1131.678" fill="#0686D8" width="166.851" height="14.352"/>
	<rect id="XMLID_271_" x="776.239" y="1131.678" fill="#5FB0E5" width="57.343" height="14.352"/>
	<rect id="XMLID_270_" x="849.559" y="1131.678" fill="#9ECFEF" width="273.739" height="14.352"/>
	<rect id="XMLID_269_" x="1144.561" y="1131.678" fill="#0686D8" width="247.183" height="14.352"/>
	<rect id="XMLID_268_" x="651.194" y="1186" fill="#0686D8" width="86.579" height="14.355"/>
	<rect id="XMLID_267_" x="763.288" y="1186" fill="#0686D8" width="205.522" height="14.355"/>
	<rect id="XMLID_266_" x="697.79" y="1240.33" fill="#0686D8" width="166.858" height="14.353"/>
	<rect id="XMLID_265_" x="899.699" y="1240.33" fill="#5FB0E5" width="166.863" height="14.353"/>
	<rect id="XMLID_264_" x="1092.471" y="1240.33" fill="#0686D8" width="157.146" height="14.353"/>
	<rect id="XMLID_263_" x="1357.062" y="928.793" fill="#0686D8" width="47.146" height="14.345"/>
	<rect id="XMLID_262_" x="945.402" y="928.793" fill="#0686D8" width="390.728" height="14.345"/>
	<rect id="XMLID_261_" x="737.773" y="781.188" fill="#0686D8" width="444.126" height="14.331"/>
	<rect id="XMLID_260_" x="522.162" y="759.823" fill="#0686D8" width="23.078" height="23.069"/>
	<rect id="XMLID_259_" x="522.162" y="820.592" fill="#0686D8" width="23.078" height="23.079"/>
	<rect id="XMLID_258_" x="522.162" y="881.372" fill="#0686D8" width="23.078" height="23.076"/>
	<rect id="XMLID_257_" x="522.162" y="942.146" fill="#0686D8" width="23.078" height="23.08"/>
	<rect id="XMLID_256_" x="522.162" y="1002.925" fill="#0686D8" width="23.078" height="23.093"/>
	<rect id="XMLID_255_" x="522.162" y="1063.716" fill="#0686D8" width="23.078" height="23.076"/>
	<rect id="XMLID_254_" x="522.162" y="1124.494" fill="#0686D8" width="23.078" height="23.076"/>
	<rect id="XMLID_253_" x="522.162" y="1185.271" fill="#0686D8" width="23.078" height="23.075"/>
	<rect id="XMLID_252_" x="522.162" y="1246.049" fill="#0686D8" width="23.075" height="23.078"/>
	<rect id="XMLID_251_" x="522.162" y="1306.825" fill="#0686D8" width="23.075" height="23.078"/>
</g>
<g>
	<path id="XMLID_462_" fill="#9ECFEF" d="M1761.32,1408.796c0,83.648-67.823,151.482-151.481,151.482
		c-83.667,0-151.491-67.834-151.491-151.482c0-83.669,67.824-151.483,151.491-151.483
		C1693.497,1257.312,1761.32,1325.127,1761.32,1408.796z"/>
	<path id="XMLID_461_" fill="none" stroke="#0686D8" stroke-width="1.5" stroke-miterlimit="10" d="M1519.373,1287.273
		c25.234-18.825,56.552-29.963,90.466-29.963c83.658,0,151.481,67.815,151.481,151.484c0,83.648-67.823,151.482-151.481,151.482
		c-33.221,0-73.178-18.03-98.155-36.154"/>
	<g id="XMLID_459_">
		<polygon id="XMLID_460_" fill="#FFFFFF" points="1595.704,1456.095 1546.66,1407.066 1563.971,1389.755 1595.704,1421.475 
			1655.705,1361.491 1673.003,1378.792 		"/>
	</g>
	<path id="XMLID_458_" fill="#FFFFFF" d="M1527.523,1475.867c-37.203,76.897-129.693,109.077-206.595,71.876
		c-76.896-37.202-109.071-129.692-71.886-206.589c37.205-76.891,129.698-109.072,206.594-71.881
		C1532.539,1306.476,1564.727,1398.97,1527.523,1475.867z"/>
	<path id="XMLID_457_" fill="none" stroke="#0686D8" stroke-width="1.5" stroke-miterlimit="10" d="M1322.711,1268.422
		c40.711-19.023,89.327-20.241,132.928,0.853c76.9,37.202,109.088,129.695,71.885,206.594
		c-37.201,76.897-139.729,103.729-216.621,66.529"/>
	<g id="XMLID_447_">
		<g>
			<path id="XMLID_16_" fill="#0686D8" d="M1380.443,1388.972l16.412-33.923l27.561,13.34l-16.407,33.919l33.923,16.408
				l-12.229,25.285l-33.929-16.416l-16.525,34.155l-27.551-13.336l16.517-34.155l-33.45-16.183l12.222-25.27L1380.443,1388.972z"/>
		</g>
	</g>
	<path id="XMLID_446_" fill="#5FB0E5" d="M1362.242,1405.656c0,87.014-70.546,157.561-157.565,157.561
		c-87.032,0-157.578-70.547-157.578-157.561c0-87.037,70.546-157.582,157.578-157.582
		C1291.696,1248.074,1362.242,1318.619,1362.242,1405.656z"/>
	<path id="XMLID_445_" fill="none" stroke="#0686D8" stroke-width="1.5" stroke-miterlimit="10" d="M1113.1,1277.401
		c25.818-18.458,57.418-29.327,91.577-29.327c87.021,0,157.565,70.545,157.565,157.582c0,87.014-70.546,157.561-157.565,157.561
		c-87.032,0-157.578-70.547-157.578-157.561"/>
	<g id="XMLID_431_">
		<g>
			<path id="XMLID_51_" fill="#FFFFFF" d="M1154.504,1438.114v1.089l-14.324,14.163l-41.739-41.372v-2.717l41.739-41.374
				l14.324,14.146v1.088l-28.663,27.585L1154.504,1438.114z"/>
			<path id="XMLID_49_" fill="#FFFFFF" d="M1246.675,1328.721l-60.595,153.866h-23.035l60.411-153.866H1246.675z"/>
			<path id="XMLID_47_" fill="#FFFFFF" d="M1283.5,1410.722l-28.673-27.585v-1.088l14.338-14.146l41.736,41.374v2.717
				l-41.736,41.372l-14.338-14.163v-1.089L1283.5,1410.722z"/>
		</g>
	</g>
</g>
<g enable-background="new    ">
	<path fill="#5EAFE4" d="M119.083,1723.012c-5.505,5.371-13.159,8.728-21.484,8.728c-16.919,0-30.615-13.696-30.615-30.749
		c0-16.92,13.696-30.75,30.615-30.75c8.325,0,15.979,3.357,21.484,8.729v-49.012h15.845v99.902h-15.845V1723.012z M89.139,1712.135
		c2.82,2.954,6.58,4.565,10.608,4.565s7.922-1.611,10.742-4.565s4.431-6.982,4.431-11.145c0-4.163-1.611-8.057-4.431-11.146
		c-2.82-2.954-6.714-4.565-10.742-4.565s-7.788,1.611-10.608,4.565c-2.82,3.089-4.431,6.982-4.431,11.146
		C84.708,1705.152,86.319,1709.181,89.139,1712.135z"/>
	<path fill="#5EAFE4" d="M198.976,1720.729c-5.505,6.58-13.965,10.742-23.23,10.742c-16.919,0-30.75-13.83-30.75-30.75
		c0-17.053,13.831-30.749,30.75-30.749s30.75,13.696,30.75,30.749c0,1.881-0.134,3.626-0.537,5.506h-43.237
		c0.806,2.148,1.88,4.028,3.357,5.64c2.82,3.089,6.445,4.7,10.339,4.7c3.625,0,7.251-1.611,9.937-4.297L198.976,1720.729z
		 M190.248,1696.021c-0.671-2.417-1.88-4.699-3.625-6.58c-2.686-2.953-6.445-4.564-10.205-4.564c-3.894,0-7.52,1.611-10.339,4.564
		c-1.611,1.881-2.82,4.163-3.625,6.58H190.248z"/>
	<path fill="#5EAFE4" d="M234.693,1729.859l-28.87-57.873h16.65l14.771,29.675l14.636-29.675h16.65l-28.87,57.873H234.693z"/>
	<path fill="#5EAFE4" d="M321.838,1720.729c-5.505,6.58-13.965,10.742-23.23,10.742c-16.919,0-30.75-13.83-30.75-30.75
		c0-17.053,13.831-30.749,30.75-30.749s30.75,13.696,30.75,30.749c0,1.881-0.134,3.626-0.537,5.506h-43.237
		c0.806,2.148,1.88,4.028,3.357,5.64c2.82,3.089,6.445,4.7,10.339,4.7c3.625,0,7.251-1.611,9.937-4.297L321.838,1720.729z
		 M313.11,1696.021c-0.671-2.417-1.88-4.699-3.625-6.58c-2.686-2.953-6.445-4.564-10.205-4.564c-3.894,0-7.52,1.611-10.339,4.564
		c-1.611,1.881-2.82,4.163-3.625,6.58H313.11z"/>
	<path fill="#5EAFE4" d="M339.427,1729.859v-99.902h17.188v99.902H339.427z"/>
	<path fill="#5EAFE4" d="M430.062,1700.855c0,17.053-14.233,30.615-32.092,30.615c-17.725,0-31.958-13.562-31.958-30.615
		c0-16.919,14.233-30.615,31.958-30.615C415.829,1670.24,430.062,1683.937,430.062,1700.855z M413.144,1700.721
		c0-4.162-1.477-8.057-4.297-11.01c-2.954-3.089-6.58-4.7-10.742-4.7c-3.894,0-7.788,1.611-10.474,4.7
		c-3.088,2.953-4.565,6.982-4.565,11.145c0,4.297,1.477,8.191,4.565,11.279c2.686,2.954,6.58,4.565,10.474,4.565
		c4.163,0,7.788-1.611,10.742-4.565C411.667,1709.047,413.144,1705.018,413.144,1700.721z"/>
	<path fill="#5EAFE4" d="M456.512,1678.699c5.505-5.371,13.159-8.728,21.484-8.728c16.919,0,30.615,13.831,30.615,30.749
		c0,17.054-13.696,30.75-30.615,30.75c-8.325,0-15.979-3.223-21.484-8.729v49.146h-15.71v-99.902h14.502L456.512,1678.699z
		 M486.456,1689.711c-2.82-3.089-6.58-4.7-10.608-4.7s-7.922,1.611-10.742,4.7c-2.82,2.953-4.431,6.848-4.431,11.01
		c0,4.297,1.611,8.191,4.431,11.146s6.714,4.565,10.742,4.565s7.788-1.611,10.608-4.565s4.431-6.849,4.431-11.146
		C490.887,1696.559,489.275,1692.664,486.456,1689.711z"/>
	<path fill="#5EAFE4" d="M572.658,1720.729c-5.505,6.58-13.965,10.742-23.23,10.742c-16.919,0-30.75-13.83-30.75-30.75
		c0-17.053,13.831-30.749,30.75-30.749s30.75,13.696,30.75,30.749c0,1.881-0.134,3.626-0.537,5.506h-43.237
		c0.806,2.148,1.88,4.028,3.357,5.64c2.82,3.089,6.445,4.7,10.339,4.7c3.625,0,7.251-1.611,9.937-4.297L572.658,1720.729z
		 M563.93,1696.021c-0.671-2.417-1.88-4.699-3.625-6.58c-2.686-2.953-6.445-4.564-10.205-4.564c-3.894,0-7.52,1.611-10.339,4.564
		c-1.611,1.881-2.82,4.163-3.625,6.58H563.93z"/>
	<path fill="#5EAFE4" d="M641.675,1723.012c-5.505,5.371-13.159,8.728-21.484,8.728c-16.919,0-30.615-13.696-30.615-30.749
		c0-16.92,13.696-30.75,30.615-30.75c8.325,0,15.979,3.357,21.484,8.729v-49.012h15.845v99.902h-15.845V1723.012z M611.731,1712.135
		c2.82,2.954,6.58,4.565,10.608,4.565s7.922-1.611,10.742-4.565s4.431-6.982,4.431-11.145c0-4.163-1.611-8.057-4.431-11.146
		c-2.82-2.954-6.714-4.565-10.742-4.565s-7.788,1.611-10.608,4.565c-2.82,3.089-4.431,6.982-4.431,11.146
		C607.3,1705.152,608.912,1709.181,611.731,1712.135z"/>
	<path fill="#5EAFE4" d="M750.838,1671.986v15.71H737.41v42.163h-17.053v-42.163h-12.085v-15.71h12.085v-21.484h17.053v21.484
		H750.838z"/>
	<path fill="#5EAFE4" d="M824.017,1700.855c0,17.053-14.233,30.615-32.092,30.615c-17.725,0-31.958-13.562-31.958-30.615
		c0-16.919,14.233-30.615,31.958-30.615C809.783,1670.24,824.017,1683.937,824.017,1700.855z M807.098,1700.721
		c0-4.162-1.477-8.057-4.297-11.01c-2.954-3.089-6.58-4.7-10.742-4.7c-3.894,0-7.788,1.611-10.474,4.7
		c-3.088,2.953-4.565,6.982-4.565,11.145c0,4.297,1.477,8.191,4.565,11.279c2.686,2.954,6.58,4.565,10.474,4.565
		c4.163,0,7.788-1.611,10.742-4.565C805.621,1709.047,807.098,1705.018,807.098,1700.721z"/>
	<path fill="#5EAFE4" d="M891.553,1675.611c4.968-3.357,10.876-5.371,17.322-5.371c16.919,0,30.615,13.83,30.615,30.75v28.869
		h-17.725v-28.869c0-4.163-1.611-8.057-4.431-11.146c-2.82-2.954-6.58-4.565-10.608-4.565s-7.922,1.611-10.742,4.565
		c-2.82,3.089-4.431,6.982-4.431,11.146v28.869h-17.859v-99.902h17.859V1675.611z"/>
	<path fill="#5EAFE4" d="M1001.523,1720.729c-5.505,6.58-13.965,10.742-23.23,10.742c-16.919,0-30.75-13.83-30.75-30.75
		c0-17.053,13.831-30.749,30.75-30.749s30.75,13.696,30.75,30.749c0,1.881-0.135,3.626-0.537,5.506h-43.237
		c0.806,2.148,1.88,4.028,3.357,5.64c2.82,3.089,6.445,4.7,10.339,4.7c3.625,0,7.251-1.611,9.937-4.297L1001.523,1720.729z
		 M992.795,1696.021c-0.671-2.417-1.88-4.699-3.625-6.58c-2.686-2.953-6.445-4.564-10.205-4.564c-3.894,0-7.52,1.611-10.339,4.564
		c-1.611,1.881-2.82,4.163-3.625,6.58H992.795z"/>
	<path fill="#5EAFE4" d="M1019.111,1729.859v-99.902h17.188v99.902H1019.111z"/>
	<path fill="#5EAFE4" d="M1064.094,1678.699c5.504-5.371,13.158-8.728,21.484-8.728c16.918,0,30.615,13.831,30.615,30.749
		c0,17.054-13.697,30.75-30.615,30.75c-8.326,0-15.98-3.223-21.484-8.729v49.146h-15.711v-99.902h14.502L1064.094,1678.699z
		 M1094.037,1689.711c-2.82-3.089-6.58-4.7-10.607-4.7c-4.029,0-7.924,1.611-10.742,4.7c-2.82,2.953-4.432,6.848-4.432,11.01
		c0,4.297,1.611,8.191,4.432,11.146c2.818,2.954,6.713,4.565,10.742,4.565c4.027,0,7.787-1.611,10.607-4.565
		s4.432-6.849,4.432-11.146C1098.469,1696.559,1096.857,1692.664,1094.037,1689.711z"/>
	<path fill="#5EAFE4" d="M1193.396,1726.234l-28.199-54.248h19.336l19.068,32.092l17.725-32.092h18.799l-51.965,99.902h-18.799
		L1193.396,1726.234z"/>
	<path fill="#5EAFE4" d="M1301.893,1700.855c0,17.053-14.234,30.615-32.092,30.615c-17.725,0-31.959-13.562-31.959-30.615
		c0-16.919,14.234-30.615,31.959-30.615C1287.658,1670.24,1301.893,1683.937,1301.893,1700.855z M1284.973,1700.721
		c0-4.162-1.477-8.057-4.297-11.01c-2.953-3.089-6.578-4.7-10.742-4.7c-3.893,0-7.787,1.611-10.473,4.7
		c-3.088,2.953-4.566,6.982-4.566,11.145c0,4.297,1.479,8.191,4.566,11.279c2.686,2.954,6.58,4.565,10.473,4.565
		c4.164,0,7.789-1.611,10.742-4.565C1283.496,1709.047,1284.973,1705.018,1284.973,1700.721z"/>
	<path fill="#5EAFE4" d="M1370.908,1700.721c0,17.054-14.771,30.75-30.348,30.75c-15.711,0-30.346-13.696-30.346-30.75v-28.734
		h17.188v28.332c0,4.028,1.477,7.788,3.625,10.474c2.686,2.819,6.176,4.431,9.533,4.431s6.848-1.611,9.4-4.431
		c2.281-2.686,3.76-6.445,3.76-10.474v-28.332h17.188V1700.721z"/>
	<path fill="#5EAFE4" d="M1429.045,1710.121c8.459,9.668,21.35,10.07,21.35,2.819c0-4.297-4.162-5.64-8.459-6.982
		c-11.279-3.491-19.068-6.982-19.068-18.128c0-10.607,9.535-17.59,20.545-17.59c9.938,0,15.309,2.148,23.096,6.848l-7.787,12.22
		c-11.279-8.057-18.934-7.386-19.74-1.208c-0.67,4.297,5.641,5.102,12.354,7.385c8.191,2.417,15.846,7.922,15.846,17.859
		c0,9.265-9.533,18.127-21.35,18.127c-10.475,0-20.41-3.357-27.527-10.474L1429.045,1710.121z"/>
	<path fill="#5EAFE4" d="M1534.988,1700.721c0,17.054-14.771,30.75-30.348,30.75c-15.711,0-30.346-13.696-30.346-30.75v-28.734
		h17.188v28.332c0,4.028,1.477,7.788,3.625,10.474c2.686,2.819,6.176,4.431,9.533,4.431s6.848-1.611,9.4-4.431
		c2.281-2.686,3.76-6.445,3.76-10.474v-28.332h17.188V1700.721z"/>
	<path fill="#5EAFE4" d="M1588.293,1689.979c-8.729-9.533-27.527-3.49-27.527,11.012c0,12.891,17.457,21.081,27.527,11.145
		l7.52,13.428c-5.371,3.625-11.951,5.908-19.068,5.908c-17.725,0-32.092-13.696-32.092-30.75c0-16.918,14.367-30.615,32.092-30.615
		c7.252,0,13.832,2.283,19.336,6.178L1588.293,1689.979z"/>
	<path fill="#5EAFE4" d="M1647.777,1689.979c-8.729-9.533-27.527-3.49-27.527,11.012c0,12.891,17.457,21.081,27.527,11.145
		l7.52,13.428c-5.371,3.625-11.951,5.908-19.068,5.908c-17.725,0-32.092-13.696-32.092-30.75c0-16.918,14.367-30.615,32.092-30.615
		c7.252,0,13.832,2.283,19.336,6.178L1647.777,1689.979z"/>
	<path fill="#5EAFE4" d="M1715.586,1720.729c-5.504,6.58-13.965,10.742-23.229,10.742c-16.92,0-30.75-13.83-30.75-30.75
		c0-17.053,13.83-30.749,30.75-30.749c16.918,0,30.748,13.696,30.748,30.749c0,1.881-0.133,3.626-0.537,5.506h-43.236
		c0.805,2.148,1.879,4.028,3.357,5.64c2.818,3.089,6.445,4.7,10.338,4.7c3.627,0,7.252-1.611,9.938-4.297L1715.586,1720.729z
		 M1706.859,1696.021c-0.672-2.417-1.881-4.699-3.627-6.58c-2.686-2.953-6.445-4.564-10.205-4.564c-3.893,0-7.52,1.611-10.338,4.564
		c-1.611,1.881-2.82,4.163-3.627,6.58H1706.859z"/>
	<path fill="#5EAFE4" d="M1786.482,1720.729c-5.504,6.58-13.965,10.742-23.229,10.742c-16.92,0-30.75-13.83-30.75-30.75
		c0-17.053,13.83-30.749,30.75-30.749c16.918,0,30.748,13.696,30.748,30.749c0,1.881-0.133,3.626-0.537,5.506h-43.236
		c0.805,2.148,1.879,4.028,3.357,5.64c2.818,3.089,6.445,4.7,10.338,4.7c3.627,0,7.252-1.611,9.938-4.297L1786.482,1720.729z
		 M1777.756,1696.021c-0.672-2.417-1.881-4.699-3.627-6.58c-2.686-2.953-6.445-4.564-10.205-4.564c-3.893,0-7.52,1.611-10.338,4.564
		c-1.611,1.881-2.82,4.163-3.627,6.58H1777.756z"/>
	<path fill="#5EAFE4" d="M1855.5,1723.012c-5.504,5.371-13.158,8.728-21.484,8.728c-16.918,0-30.615-13.696-30.615-30.749
		c0-16.92,13.697-30.75,30.615-30.75c8.326,0,15.98,3.357,21.484,8.729v-49.012h15.846v99.902H1855.5V1723.012z M1825.557,1712.135
		c2.82,2.954,6.58,4.565,10.607,4.565c4.029,0,7.924-1.611,10.742-4.565c2.82-2.954,4.432-6.982,4.432-11.145
		c0-4.163-1.611-8.057-4.432-11.146c-2.818-2.954-6.713-4.565-10.742-4.565c-4.027,0-7.787,1.611-10.607,4.565
		c-2.82,3.089-4.432,6.982-4.432,11.146C1821.125,1705.152,1822.736,1709.181,1825.557,1712.135z"/>
	<path fill="#5EAFE4" d="M1882.756,1729.859v-17.59h17.592v17.59H1882.756z"/>
</g>
<g enable-background="new    ">
</g>
</svg>
